<svg width="150" height="28" viewBox="0 0 150 28" fill="none" xmlns="http://www.w3.org/2000/svg">
<path d="M40.3446 10.2006C41.6312 9.90189 42.8258 9.75256 43.9286 9.75256C45.0314 9.75256 45.9618 9.78702 46.72 9.85594V23.6061C47.616 23.9507 48.2478 24.3413 48.6154 24.7778L48.2708 27.4313H40.3446L40 24.7778C40.3216 24.3413 40.9534 23.9507 41.8954 23.6061V14.0258C41.0913 13.7501 40.4595 13.3595 40 12.8541L40.3446 10.2006ZM44.2388 7.82271C42.3319 7.82271 41.3785 6.96117 41.3785 5.2381C41.3785 3.49204 42.3319 2.61902 44.2388 2.61902C46.1686 2.61902 47.1335 3.49204 47.1335 5.2381C47.1335 6.96117 46.1686 7.82271 44.2388 7.82271Z" fill="white"/>
<path d="M66.2595 3.65295V9.64926L63.7093 9.95942C63.1809 9.49993 62.7559 8.64988 62.4342 7.40926H57.0582V13.6813H61.8484C62.1241 12.992 62.4113 12.5096 62.7099 12.2339L64.881 12.4751V18.6093L62.7099 18.885C62.4113 18.6552 62.1241 18.1727 61.8484 17.4376H57.0582V23.1582C58.5975 23.5028 59.7117 23.9738 60.401 24.5711L60.0564 27.4314H50.545L50.2004 24.5711C50.499 24.1805 51.1308 23.8015 52.0958 23.4339V7.68495C51.1538 7.34034 50.522 6.94977 50.2004 6.51326L50.545 3.65295H66.2595Z" fill="white"/>
<path d="M75.9926 27.7071C73.2817 27.7071 71.2714 26.9834 69.9619 25.536C68.6523 24.0886 67.9976 21.9061 67.9976 18.9883C67.9976 16.0476 68.7213 13.8076 70.1687 12.2683C71.639 10.7061 73.7412 9.92492 76.475 9.92492C79.209 9.92492 81.2307 10.6142 82.5403 11.9926C83.8728 13.3711 84.539 15.5307 84.539 18.4714C84.539 21.3891 83.7924 23.6636 82.299 25.2948C80.8287 26.903 78.7265 27.7071 75.9926 27.7071ZM72.9601 18.6782C72.9601 22.3541 74.0628 24.192 76.2683 24.192C77.394 24.192 78.2211 23.7785 78.7495 22.9514C79.3009 22.1013 79.5766 20.7229 79.5766 18.816C79.5766 15.232 78.4508 13.44 76.1993 13.44C75.0966 13.44 74.2811 13.8421 73.7527 14.6462C73.2243 15.4273 72.9601 16.7713 72.9601 18.6782ZM74.5797 6.75446C74.7176 5.74359 75.1081 4.53744 75.7514 3.136C76.3946 1.71159 77.0494 0.666256 77.7156 0L81.2996 2.20554C80.978 3.12451 80.3232 4.14687 79.3353 5.27262C78.3474 6.37538 77.3825 7.22544 76.4406 7.82277C75.2001 7.15651 74.5797 6.80041 74.5797 6.75446Z" fill="white"/>
<path d="M96.6447 14.4394C94.8987 14.4394 93.6925 14.7725 93.0259 15.4388V23.3305C94.8872 23.6751 96.1623 24.1576 96.8515 24.7779L96.5065 27.4314H86.6509L86.3059 24.7779C86.6275 24.3414 87.2597 23.9508 88.2013 23.6062V18.816V14.0259C87.3972 13.7502 86.7654 13.3596 86.3059 12.8542L86.6509 10.2006C87.9145 9.92496 89.0517 9.78711 90.0626 9.78711C91.0731 9.78711 91.9117 9.81008 92.5779 9.85603V12.0271C93.1063 11.4068 93.7841 10.9014 94.6115 10.5108C95.4386 10.0973 96.1852 9.89049 96.8515 9.89049C97.5407 9.89049 98.0117 9.94793 98.2641 10.0628L98.161 14.5428C97.7016 14.4739 97.1958 14.4394 96.6447 14.4394Z" fill="white"/>
<path d="M112.383 25.9839C110.798 27.1327 108.925 27.707 106.766 27.707C104.629 27.707 103.136 27.259 102.286 26.363C101.436 25.467 101.011 24.0082 101.011 21.9864V14.0258C100.206 13.7501 99.5747 13.3595 99.1152 12.8541L99.4598 10.2006C100.746 9.9019 101.941 9.75256 103.044 9.75256C104.147 9.75256 105.077 9.78703 105.835 9.85595V20.8492C105.835 22.0898 106.019 22.9169 106.387 23.3304C106.777 23.721 107.535 23.9163 108.661 23.9163C109.787 23.9163 110.832 23.5487 111.797 22.8135V14.0258C110.993 13.7501 110.361 13.3595 109.902 12.8541L110.246 10.2006C111.533 9.9019 112.727 9.75256 113.83 9.75256C114.933 9.75256 115.863 9.78703 116.622 9.85595V23.2959C117.426 23.4568 118.058 23.6521 118.517 23.8818V26.6043C117.139 27.3394 115.404 27.707 113.313 27.707C112.739 27.2935 112.429 26.7191 112.383 25.9839Z" fill="white"/>
<path d="M120.271 10.2006C121.535 9.92496 122.672 9.78711 123.683 9.78711C124.694 9.78711 125.532 9.81008 126.198 9.85603V11.5791C126.75 11.1196 127.439 10.7291 128.266 10.4074C129.093 10.0858 129.84 9.92496 130.506 9.92496C133.125 9.92496 134.871 10.5797 135.744 11.8893C136.319 11.3379 137.077 10.8784 138.019 10.5108C138.961 10.1202 139.834 9.92496 140.638 9.92496C143.165 9.92496 144.865 10.4993 145.738 11.648C146.611 12.7738 147.048 14.8989 147.048 18.0234V23.6062C147.944 23.9508 148.575 24.3414 148.943 24.7779L148.598 27.4314H140.672L140.328 24.7779C140.649 24.3414 141.281 23.9508 142.223 23.6062V16.7828C142.223 15.5192 142.051 14.6806 141.706 14.2671C141.361 13.8536 140.672 13.6468 139.638 13.6468C138.627 13.6468 137.663 14.0259 136.744 14.784C136.858 15.5652 136.916 16.645 136.916 18.0234V23.6062C137.812 23.9508 138.444 24.3414 138.811 24.7779L138.467 27.4314H130.541L130.196 24.7779C130.518 24.3414 131.149 23.9508 132.091 23.6062V16.7828C132.091 15.5192 131.919 14.6806 131.574 14.2671C131.23 13.8536 130.552 13.6468 129.541 13.6468C128.53 13.6468 127.565 14.0144 126.646 14.7496V23.6062C127.542 23.9508 128.174 24.3414 128.542 24.7779L128.197 27.4314H120.271L119.926 24.7779C120.248 24.3414 120.88 23.9508 121.822 23.6062V14.0259C121.018 13.7502 120.386 13.3596 119.926 12.8542L120.271 10.2006Z" fill="white"/>
<path fill-rule="evenodd" clip-rule="evenodd" d="M41.3784 5.2381C41.3784 6.96117 42.3319 7.82271 44.2388 7.82271C46.1686 7.82271 47.1335 6.96117 47.1335 5.2381C47.1335 3.49204 46.1686 2.61902 44.2388 2.61902C42.3319 2.61902 41.3784 3.49204 41.3784 5.2381Z" fill="#CF3034"/>
<path fill-rule="evenodd" clip-rule="evenodd" d="M75.7538 3.136C75.1106 4.53744 74.72 5.74359 74.5822 6.75446C74.5822 6.80041 75.2025 7.15651 76.4431 7.82277C77.385 7.22544 78.3499 6.37538 79.3378 5.27262C80.3257 4.14687 80.9805 3.12451 81.3022 2.20554L77.7182 0C77.0519 0.666256 76.3971 1.71159 75.7538 3.136Z" fill="#379936"/>
<path d="M22 17C22 23.0751 17.0751 28 11 28C4.92487 28 1.4999e-06 23.0751 1.4999e-06 17C1.4999e-06 10.9249 4.92487 5.99999 11 5.99999C17.0751 5.99999 22 10.9249 22 17Z" fill="#379936"/>
<circle cx="21.2266" cy="17" r="11" fill="#CF3034" style="mix-blend-mode:lighten"/>
</svg>
